<svg xmlns="http://www.w3.org/2000/svg" viewBox="0 0 1024 1024">
  <rect width="1024" height="1024" rx="224" fill="#1e1b4b"/>
  <rect x="80" y="80" width="864" height="864" rx="180" fill="#312e81"/>
  <!-- House shape -->
  <path d="M512 220 L820 440 L820 780 Q820 810 790 810 L234 810 Q204 810 204 780 L204 440 Z"
        fill="#4c1d95" stroke="#6366f1" stroke-width="12"/>
  <!-- Door -->
  <rect x="432" y="560" width="160" height="250" rx="12" fill="#6366f1"/>
  <circle cx="564" cy="690" r="14" fill="#a5b4fc"/>
  <!-- Window left -->
  <rect x="260" y="480" width="120" height="100" rx="10" fill="#818cf8" opacity="0.6"/>
  <line x1="320" y1="480" x2="320" y2="580" stroke="#4c1d95" stroke-width="4"/>
  <line x1="260" y1="530" x2="380" y2="530" stroke="#4c1d95" stroke-width="4"/>
  <!-- Window right -->
  <rect x="644" y="480" width="120" height="100" rx="10" fill="#818cf8" opacity="0.6"/>
  <line x1="704" y1="480" x2="704" y2="580" stroke="#4c1d95" stroke-width="4"/>
  <line x1="644" y1="530" x2="764" y2="530" stroke="#4c1d95" stroke-width="4"/>
  <!-- Furniture icon (couch) at top -->
  <rect x="390" y="340" width="244" height="80" rx="20" fill="#a5b4fc"/>
  <rect x="370" y="370" width="30" height="50" rx="10" fill="#a5b4fc"/>
  <rect x="624" y="370" width="30" height="50" rx="10" fill="#a5b4fc"/>
</svg>
